<svg width="300" height="300" xmlns="http://www.w3.org/2000/svg" version="1.1">

 <g>
  <title>Layer 1</title>
  <g stroke="null" id="svg_36">
   <path stroke="null" id="svg_1" fill="#F2681A" d="m324.92652,313.11477c-115.49989,0 -230.99978,0 -349.99967,0l349.99967,0z"/>
   <path stroke="null" id="svg_2" fill="#FDFAF5" d="m230.42661,50.61502c1.09635,0.84971 2.19269,1.69941 3.32227,2.57487c6.0167,4.80471 11.77437,9.88134 17.45896,15.07095c0.92279,0.83777 0.92279,0.83777 1.86421,1.69246c1.82139,1.68656 3.58649,3.41937 5.35453,5.1617c0.6084,0.56463 1.2168,1.12926 1.84363,1.71101c5.6555,5.75839 6.18251,10.42808 6.13219,18.29861c0.01989,1.16214 0.03979,2.32428 0.06029,3.52163c0.0564,3.82793 0.0628,7.65407 0.06673,11.48239c0.025,2.67513 0.05237,5.35025 0.08199,8.02533c0.05453,5.60472 0.08515,11.20891 0.09802,16.81388c0.01764,7.15428 0.08693,14.30691 0.17341,21.46066c0.06229,5.52593 0.10059,11.05183 0.13149,16.57803c0.01686,2.63582 0.04014,5.27161 0.07019,7.90732c0.17969,17.5846 0.1171,32.82443 -11.23739,47.31689c-7.34934,7.267 -16.53921,12.06071 -25.42055,17.21743c-1.97009,1.16331 -3.94014,2.32668 -5.90881,3.49241c-7.15769,4.23806 -14.33716,8.43772 -21.52891,12.61771c-4.80165,2.79174 -9.59343,5.59955 -14.37995,8.4172c-1.25097,0.73485 -2.50194,1.46968 -3.79081,2.2268c-2.32245,1.36433 -4.64354,2.73095 -6.96296,4.10042c-27.47252,16.09213 -27.47252,16.09213 -42.15832,12.92618c-8.06164,-2.2769 -14.93744,-5.81542 -22.15554,-10.02034c-1.16938,-0.67243 -2.33876,-1.34486 -3.54357,-2.03767c-24.55018,-14.25112 -43.58405,-27.02989 -51.90494,-55.58466c-1.06636,-4.57675 -1.53592,-8.91629 -1.52214,-13.60807c0.27615,-9.50127 0.27615,-9.50127 -3.30403,-17.96938c-1.81471,-1.49001 -3.68071,-2.91966 -5.59179,-4.28386c-9.19073,-7.05689 -12.69924,-20.03175 -14.17801,-31.06218c-0.53614,-5.77117 -0.55109,-11.55803 -0.60128,-17.34988c-0.03383,-1.31517 -0.06768,-2.63033 -0.10254,-3.98535c-0.00978,-1.26402 -0.01955,-2.52806 -0.02962,-3.8304c-0.01701,-1.1455 -0.03403,-2.291 -0.05155,-3.47123c0.71562,-4.01677 1.93922,-5.35921 5.21496,-7.74426c2.8859,-0.52978 2.8859,-0.52978 6.0703,-0.45572c1.71446,0.02255 1.71446,0.02255 3.46354,0.04557c1.18509,0.03909 2.37016,0.0782 3.59115,0.11849c1.20312,0.02106 2.40625,0.0421 3.64583,0.0638c2.96638,0.05493 5.93055,0.13163 8.89582,0.22786c0.14287,-1.3475 0.28574,-2.695 0.43294,-4.08333c0.6253,-5.00231 1.77677,-9.73747 3.13998,-14.58332c0.21731,-0.79256 0.43463,-1.58511 0.65852,-2.40169c0.52822,-1.92325 1.06422,-3.84435 1.60189,-5.76497c-1.54978,-0.44666 -1.54978,-0.44666 -3.13085,-0.90235c-9.52298,-3.52203 -17.09573,-10.95371 -21.36912,-20.09763c-3.81119,-9.25574 -3.87238,-20.34462 -0.29167,-29.67706c6.48846,-13.99072 16.36076,-23.2346 30.65858,-29.00599c49.80551,-17.69163 115.79364,8.35075 155.13291,38.84973z"/>
   <path stroke="null" id="svg_3" fill="#F2671A" d="m142.92669,22.61505c0.86324,0.194 1.72648,0.38801 2.61589,0.58789c36.11824,8.20868 68.78991,24.97766 95.38402,50.74539c1.01664,0.98356 2.03328,1.9671 3.08073,2.98047c10.83948,10.66464 10.83948,10.66464 11.04686,14.61978c-2.0583,3.55128 -5.4353,4.17725 -9.16927,5.29556c-0.79453,0.24692 -1.58907,0.49385 -2.40767,0.74825c-28.1259,8.42762 -60.94703,6.3666 -87.13391,-7.16491c-0.85657,-0.48718 -1.71313,-0.97434 -2.59566,-1.47628c-7.37383,-4.05183 -12.58845,-3.35686 -20.59012,-1.54122c-22.76373,3.99921 -48.47173,1.53219 -68.68914,-9.74291c-4.87964,-3.88153 -8.23277,-8.29209 -10.20832,-14.21874c-0.93353,-10.37559 -0.67244,-18.43528 5.83333,-26.83331c19.57482,-23.38104 55.98802,-20.36071 82.83325,-13.99999z"/>
   <path stroke="null" id="svg_4" fill="#F16619" d="m44.92679,129.12475c27.36042,-0.02722 54.72084,-0.04781 82.08127,-0.06044c12.70298,-0.00603 25.40595,-0.01424 38.10892,-0.02757c11.06767,-0.0116 22.13531,-0.01914 33.20298,-0.02176c5.86407,-0.00153 11.72812,-0.00512 17.59217,-0.01358c5.51275,-0.00789 11.02547,-0.01037 16.53822,-0.00861c2.02945,-0.00031 4.0589,-0.00266 6.08835,-0.00712c2.75843,-0.00575 5.51676,-0.00442 8.27519,-0.00121c0.8137,-0.00341 1.62741,-0.0068 2.46576,-0.0103c5.5138,0.01745 5.5138,0.01745 6.81361,1.31726c0.21875,3.42708 0.21875,3.42708 0,6.99999c-2.74584,2.74584 -3.41796,2.6585 -7.15494,2.8164c-1.40992,0.06768 -1.40992,0.06768 -2.84831,0.13672c-1.47308,0.05414 -1.47308,0.05414 -2.97591,0.10937c-1.48661,0.06768 -1.48661,0.06768 -3.00325,0.13672c-2.44988,0.1101 -4.90036,0.20672 -7.3509,0.30078c-0.19852,1.29636 -0.39703,2.59273 -0.60156,3.92838c-2.57435,16.08471 -5.93031,29.88719 -18.89452,40.86064c-10.35021,7.27694 -21.87162,8.49113 -34.17054,7.71092c-13.11247,-2.32907 -22.52304,-9.19115 -30.3333,-19.83331c-4.49097,-7.63945 -4.80442,-17.04803 -5.83333,-25.66664c-4.235,0.385 -8.46999,0.77 -12.83332,1.16667c-0.27747,1.83852 -0.27747,1.83852 -0.56055,3.71418c-2.3211,14.38609 -5.62628,23.34743 -16.95311,33.11326c-2.31966,1.67252 -2.31966,1.67252 -4.65299,1.67252c4.0025,4.66958 9.06134,6.59237 14.87499,8.23958c3.79166,1.09375 3.79166,1.09375 6.12499,3.42708c-0.64815,5.31481 -0.64815,5.31481 -2.33333,6.99999c-8.41704,-0.26721 -15.13168,-2.29137 -22.16665,-6.99999c-1.09242,-1.20998 -2.17483,-2.42903 -3.24935,-3.65494c-2.72252,-2.8135 -4.44748,-3.83583 -8.36261,-4.16081c-1.67085,-0.02376 -3.34231,-0.01823 -5.01302,0.01367c-1.76847,-0.03883 -3.53675,-0.08739 -5.30468,-0.14583c-1.26892,-0.0406 -1.26892,-0.0406 -2.56348,-0.08203c-9.2584,-0.5409 -17.59967,-4.56319 -24.50681,-10.63671c-9.58313,-11.11056 -11.02653,-22.56218 -10.71874,-36.82288c0.0158,-1.39938 0.03158,-2.79877 0.04786,-4.24056c0.04091,-3.42384 0.09827,-6.84655 0.17089,-10.26984z"/>
   <path stroke="null" id="svg_5" fill="#F26117" d="m172.67667,203.08363c7.27323,0.09365 13.23073,1.96539 18.86718,6.65365c2.87863,3.07269 3.85875,5.11784 4.24739,9.31509c-0.12031,1.01062 -0.24062,2.02125 -0.36458,3.0625c-2.55208,0.94792 -2.55208,0.94792 -5.83333,1.16667c-3.28125,-2.84375 -3.28125,-2.84375 -5.83333,-5.83333c-0.35643,0.579 -0.71286,1.15801 -1.08008,1.75456c-7.60197,11.28517 -20.05618,17.73584 -33.04945,21.09112c-20.36149,3.09912 -36.81163,-1.65702 -53.37039,-13.73111c-2.33333,-2.11458 -2.33333,-2.11458 -4.66666,-5.61458c0.41869,-3.45422 0.98768,-4.48767 3.5,-6.99999c4.07251,0.3672 5.9462,2.12995 8.74999,4.95833c9.81467,8.93246 22.53228,11.87016 35.51494,11.694c11.74161,-1.0497 22.38219,-5.85464 31.56832,-13.15233c2.05879,-2.45035 2.05879,-2.45035 3.5,-4.66666c-1.66031,0.07219 -1.66031,0.07219 -3.35416,0.14583c-3.64583,-0.14583 -3.64583,-0.14583 -5.97916,-2.47916c0.7534,-6.17789 1.46481,-7.18518 7.58333,-7.36458z"/>
   <path stroke="null" id="svg_6" fill="#F2691D" d="m130.09337,231.44818c3.85116,0.26258 7.7009,0.44262 11.55728,0.61068c3.81251,0.58728 5.47054,1.48428 8.27603,4.05598c-0.385,0.77 -0.77,1.54 -1.16667,2.33333c-3.0637,0.59197 -6.02227,1.03642 -9.11457,1.38542c-0.84595,0.11054 -1.6919,0.22107 -2.56348,0.33496c-4.12689,0.49462 -7.70299,0.90894 -11.65526,-0.55371c-0.21656,-1.37157 -0.21656,-1.37157 -0.4375,-2.77083c-0.48554,-3.22651 -0.48554,-3.22651 -3.0625,-5.39583c3.86853,-1.28952 4.43224,-0.98619 8.16666,0z"/>
   <path stroke="null" id="svg_13" fill="#F1631B" d="m173.04125,203.08363c5.60514,0.02406 5.60514,0.02406 9.11457,2.69791c0.52937,0.77 1.05875,1.54 1.60417,2.33333c-2.695,-0.385 -5.38999,-0.77 -8.16666,-1.16667c0,1.54 0,3.08 0,4.66666c-3.89961,0.08666 -6.77085,0.07638 -10.49999,-1.16667c1.14306,-6.36852 1.41004,-7.1827 7.94791,-7.36458z"/>
   <path stroke="null" id="svg_19" fill="#F15A12" d="m167.42667,219.78153c0.77,0.385 1.54,0.77 2.33333,1.16667c-0.385,1.54 -0.77,3.08 -1.16667,4.66666c1.925,0.385 3.85,0.77 5.83333,1.16667c-2.33333,3.5 -2.33333,3.5 -4.60286,4.097c-0.83918,0.06768 -1.67837,0.13534 -2.54297,0.20508c-1.49187,0.12032 -2.98375,0.24062 -4.52083,0.36458c0.77,-2.31 1.54,-4.62 2.33333,-6.99999c-1.54,0.385 -3.08,0.77 -4.66666,1.16667c2.25464,-2.362 4.23685,-3.99123 6.99999,-5.83333z"/>
   <path stroke="null" id="svg_31" fill="#F16C24" d="m175.59333,203.44821c3.41629,1.13876 5.38331,2.45918 8.16666,4.66666c-2.695,-0.385 -5.38999,-0.77 -8.16666,-1.16667c-0.385,1.54 -0.77,3.08 -1.16667,4.66666c-0.72917,-2.77083 -0.72917,-2.77083 -1.16667,-5.83333c0.77,-0.77 1.54,-1.54 2.33333,-2.33333z"/>
   <path stroke="null" id="svg_33" fill="#F5916D" d="m323.75986,306.11478c0.385,0 0.77,0 1.16667,0c0,2.695 0,5.38999 0,8.16666c-1.54,0 -3.08,0 -4.66666,0c2.1875,-5.54166 2.1875,-5.54166 3.5,-8.16666z"/>
   <path stroke="null" id="svg_35" fill="#F36D25" d="m116.09339,19.11505c2.31,0 4.62,0 6.99999,0c0.385,1.155 0.77,2.31 1.16667,3.5c-3.08,0 -6.15999,0 -9.33332,0c0.385,-1.155 0.77,-2.31 1.16667,-3.5z"/>
  </g>
 </g>
</svg>